<svg width="27" height="26" viewBox="0 0 27 26" fill="none" xmlns="http://www.w3.org/2000/svg">
<path d="M10.5156 12.1875C15.0029 12.1875 18.6406 10.5505 18.6406 8.53125C18.6406 6.51196 15.0029 4.875 10.5156 4.875C6.02831 4.875 2.39062 6.51196 2.39062 8.53125C2.39062 10.5505 6.02831 12.1875 10.5156 12.1875Z" stroke="#102F39" stroke-linecap="round" stroke-linejoin="round"/>
<path d="M2.39062 8.53125V12.5937C2.39062 14.6148 6.02656 16.25 10.5156 16.25C15.0047 16.25 18.6406 14.6148 18.6406 12.5937V8.53125" stroke="#102F39" stroke-linecap="round" stroke-linejoin="round"/>
<path d="M7.26562 11.8828V15.9453" stroke="#102F39" stroke-linecap="round" stroke-linejoin="round"/>
<path d="M18.6406 9.82104C22.3477 10.1664 25.1406 11.639 25.1406 13.4062C25.1406 15.4273 21.5047 17.0625 17.0156 17.0625C15.025 17.0625 13.1969 16.7375 11.7852 16.2093" stroke="#102F39" stroke-linecap="round" stroke-linejoin="round"/>
<path d="M8.89062 16.1789V17.4687C8.89062 19.4898 12.5266 21.125 17.0156 21.125C21.5047 21.125 25.1406 19.4898 25.1406 17.4687V13.4062" stroke="#102F39" stroke-linecap="round" stroke-linejoin="round"/>
<path d="M20.2656 16.7578V20.8203" stroke="#102F39" stroke-linecap="round" stroke-linejoin="round"/>
<path d="M13.7656 11.8828V20.8203" stroke="#102F39" stroke-linecap="round" stroke-linejoin="round"/>
</svg>
