<svg width="26" height="26" viewBox="0 0 26 26" fill="none" xmlns="http://www.w3.org/2000/svg">
<circle cx="13" cy="12.9926" r="12.5" fill="#102F39"/>
<path d="M15.775 10.0548C18.025 10.2486 18.9437 11.4048 18.9437 13.9361V14.0173C18.9437 16.8111 17.825 17.9298 15.0312 17.9298H10.9625C8.16871 17.9298 7.04996 16.8111 7.04996 14.0173V13.9361C7.04996 11.4236 7.95621 10.2673 10.1687 10.0611" stroke="white" stroke-linecap="round" stroke-linejoin="round"/>
<path d="M13.5 6.57581C13.5 6.29966 13.2761 6.07581 13 6.07581C12.7238 6.07581 12.5 6.29966 12.5 6.57581H13.5ZM12.5 14.6258V15.1258H13.5V14.6258H12.5ZM12.5 6.57581V14.6258H13.5V6.57581H12.5Z" fill="white"/>
<path d="M15.0937 13.2318L12.9999 15.3256L10.9062 13.2318" stroke="white" stroke-linecap="round" stroke-linejoin="round"/>
</svg>
