<svg width="21" height="22" viewBox="0 0 21 22" fill="none" xmlns="http://www.w3.org/2000/svg">
<path d="M10.0734 8.14531C9.37554 7.86084 8.62865 7.71592 7.875 7.71875C6.70686 7.71875 5.56494 8.06515 4.59367 8.71413C3.62239 9.36312 2.86537 10.2855 2.41834 11.3648C1.97131 12.444 1.85435 13.6316 2.08224 14.7773C2.31013 15.923 2.87265 16.9753 3.69865 17.8013C4.52466 18.6274 5.57705 19.1899 6.72275 19.4178C7.86845 19.6457 9.056 19.5287 10.1352 19.0817C11.2145 18.6346 12.1369 17.8776 12.7859 16.9063C13.4349 15.9351 13.7813 14.7931 13.7813 13.625C13.7841 12.8714 13.6392 12.1245 13.3547 11.4266L14.4375 10.3438L14.4375 8.375L16.4063 8.375L16.4063 6.40625L18.375 6.40625L18.375 3.125L15.0938 3.125L10.0734 8.14531Z" stroke="#102F39" stroke-linecap="round" stroke-linejoin="round"/>
<path d="M7.05469 15.2656C7.05469 15.7187 6.68742 16.0859 6.23437 16.0859C5.78133 16.0859 5.41406 15.7187 5.41406 15.2656C5.41406 14.8126 5.78133 14.4453 6.23438 14.4453C6.68742 14.4453 7.05469 14.8126 7.05469 15.2656Z" fill="#102F39"/>
</svg>
