<svg width="36" height="35" viewBox="0 0 36 35" fill="none" xmlns="http://www.w3.org/2000/svg">
<g clip-path="url(#clip0_1975_1273)">
<path d="M18.2656 35C14.8044 35 11.421 33.9736 8.54311 32.0507C5.66525 30.1278 3.42223 27.3947 2.0977 24.197C0.773162 20.9993 0.426603 17.4806 1.10184 14.0859C1.77709 10.6913 3.4438 7.57306 5.89122 5.12564C8.33864 2.67822 11.4568 1.01151 14.8515 0.336265C18.2462 -0.338976 21.7648 0.0075825 24.9625 1.33212C28.1603 2.65665 30.8934 4.89967 32.8163 7.77753C34.7392 10.6554 35.7656 14.0388 35.7656 17.5C35.7603 22.1397 33.9148 26.5878 30.6341 29.8685C27.3534 33.1493 22.9052 34.9947 18.2656 35V35ZM18.2656 0.333341C14.8703 0.333341 11.5513 1.34015 8.7283 3.22645C5.90525 5.11274 3.70496 7.79381 2.40565 10.9306C1.10635 14.0674 0.766394 17.519 1.42877 20.8491C2.09115 24.1791 3.72612 27.2379 6.12692 29.6387C8.52772 32.0395 11.5865 33.6744 14.9165 34.3368C18.2465 34.9992 21.6982 34.6592 24.835 33.3599C27.9718 32.0606 30.6528 29.8603 32.5391 27.0373C34.4254 24.2143 35.4322 20.8953 35.4322 17.5C35.427 12.9487 33.6166 8.58541 30.3984 5.36719C27.1802 2.14896 22.8168 0.338634 18.2656 0.333341V0.333341Z" fill="#2A5CAA"/>
<path d="M18.1873 29.3884C15.8411 29.3887 13.5476 28.6933 11.5967 27.39C9.64578 26.0868 8.12518 24.2342 7.22719 22.0667C6.3292 19.8992 6.09416 17.5141 6.55179 15.213C7.00943 12.9119 8.13917 10.7982 9.79816 9.13925C11.4571 7.48026 13.5708 6.35051 15.8719 5.89288C18.173 5.43525 20.5582 5.67029 22.7257 6.56828C24.8932 7.46627 26.7457 8.98687 28.0489 10.9378C29.3522 12.8887 30.0476 15.1822 30.0473 17.5284C30.0433 20.6726 28.7925 23.687 26.5692 25.9103C24.3459 28.1336 21.3315 29.3844 18.1873 29.3884ZM18.1873 5.83338C15.8742 5.83305 13.6129 6.51867 11.6894 7.80353C9.76599 9.08839 8.26675 10.9148 7.38133 13.0517C6.49591 15.1887 6.26407 17.5402 6.71514 19.8089C7.1662 22.0777 8.27991 24.1617 9.91542 25.7974C11.5509 27.4331 13.6348 28.5471 15.9034 28.9985C18.1721 29.4499 20.5236 29.2184 22.6607 28.3333C24.7978 27.4482 26.6244 25.9492 27.9095 24.0259C29.1947 22.1027 29.8806 19.8415 29.8806 17.5284C29.8771 14.428 28.644 11.4557 26.4519 9.26325C24.2598 7.07082 21.2876 5.83735 18.1873 5.83338V5.83338Z" fill="#2A5CAA"/>
<path d="M13.7656 29.3201L12.4056 31.7667C12.229 32.0851 12.4223 32.1584 12.664 32.3317L12.6223 32.4067L11.749 32.0534L13.144 29.5334C13.3106 29.2451 13.1823 29.2251 12.9256 29.0817L12.2823 28.7251L10.7473 31.5001L10.3656 31.2884L11.7656 28.7684C11.9323 28.4801 11.8056 28.4601 11.5473 28.3167L10.904 27.9601L9.36896 30.7351L8.98896 30.5234L10.6173 27.5801L13.7656 29.3201Z" fill="#2A5CAA"/>
<path d="M8.09896 27.6668C7.66229 27.2184 7.96896 26.3818 8.32896 25.2534L8.69563 25.6301C8.28896 26.8868 8.12229 27.4834 8.42229 27.7968L9.64396 26.6051L9.94729 26.9168L7.94729 28.8684C7.68563 29.1234 7.85063 29.2501 8.03063 29.4851L7.97063 29.5451L7.23563 28.9551L8.31229 27.9034L6.27729 27.9751L6.04729 27.7384L8.09896 27.6668Z" fill="#2A5CAA"/>
<path d="M7.56396 23.9217C8.12396 24.845 7.54229 25.4667 6.75896 25.9417C5.97563 26.4167 5.15396 26.6517 4.59229 25.7234C4.03063 24.795 4.63729 24.1767 5.40729 23.71C6.17729 23.2434 7.00396 23 7.56396 23.9217ZM4.76563 25.6217C5.18229 26.31 6.01229 25.825 6.51229 25.5217C7.01229 25.2184 7.81896 24.7067 7.40396 24.0217C6.98896 23.3367 6.15896 23.8284 5.66729 24.1267C5.17563 24.425 4.34729 24.9417 4.76563 25.6217Z" fill="#2A5CAA"/>
<path d="M3.32229 22.3967C5.95895 21.5451 6.52395 21.9917 6.72229 22.6067L6.55562 22.7184C6.35562 22.1001 4.90396 22.3434 3.77229 22.7084C3.42896 22.8201 3.45229 23.0017 3.50896 23.3251L3.42729 23.3517L2.71562 21.1534L5.91729 20.1184L6.05062 20.5317L3.03562 21.5001L3.32229 22.3967Z" fill="#2A5CAA"/>
<path d="M5.63896 17.3566L4.55729 17.8566L4.65063 19.1116L5.79063 19.425L5.81396 19.7383L2.97063 18.905C2.8825 18.872 2.78965 18.8534 2.69563 18.85C2.52896 18.8616 2.51063 19.13 2.49063 19.2516H2.40563L2.34229 18.3933L5.59896 16.8733L5.63896 17.3566ZM2.88729 18.6016L4.45063 19.0583L4.36729 17.9266L2.88729 18.6016Z" fill="#2A5CAA"/>
<path d="M3.76563 11.9632C3.43229 11.8149 3.33063 11.9632 3.15563 12.2416L3.07729 12.2066L4.25396 9.62158L7.31729 11.0166L7.13729 11.4116L4.25229 10.0982L3.64396 11.4316L6.52896 12.7449L6.34896 13.1416L3.76563 11.9632Z" fill="#2A5CAA"/>
<path d="M8.54729 9.40838C7.92396 10.2217 6.90729 9.97838 6.19729 9.43338C5.48729 8.88838 5.09896 8.20172 5.71729 7.38838C6.00896 7.00838 6.48062 6.70838 6.94562 6.99505L6.64729 7.38505C6.58615 7.34426 6.51744 7.31618 6.44524 7.30248C6.37304 7.28877 6.29881 7.28972 6.22698 7.30527C6.15516 7.32082 6.08718 7.35065 6.02711 7.39298C5.96704 7.43532 5.91609 7.4893 5.87729 7.55172C5.47562 8.07505 5.98062 8.65005 6.39229 8.96672C7.05896 9.47838 7.90896 9.87338 8.53562 9.05505C8.66882 8.87124 8.7723 8.66765 8.84229 8.45172L9.00896 8.58005C8.9046 8.88099 8.74835 9.16134 8.54729 9.40838V9.40838Z" fill="#2A5CAA"/>
<path d="M7.80229 5.98825C7.57396 5.70325 7.43229 5.85492 7.18062 6.00992L7.12729 5.94492L7.79396 5.27825L9.39229 7.27825L9.09896 4.22492L9.27562 4.08325L11.374 6.71492L11.0406 6.98659L9.43229 4.97992L9.72062 8.03325L9.54395 8.17492L7.80229 5.98825Z" fill="#2A5CAA"/>
<path d="M13.7123 5.54332L12.3156 4.60498L12.1256 6.28165L11.8323 6.41998L12.059 4.40998L11.049 3.72332C10.7406 3.51332 10.6873 3.39998 10.2956 3.51665L10.2656 3.43998L10.9506 3.11998L12.2073 3.96832L12.3873 2.44998L12.6723 2.31665L12.4573 4.14998L14.1706 5.33332L13.7123 5.54332Z" fill="#2A5CAA"/>
<path d="M15.5823 5.04674C14.529 5.28674 14.124 4.5384 13.9156 3.64507C13.7073 2.75174 13.749 1.8984 14.809 1.6584C15.8423 1.42507 16.2623 2.19007 16.4606 3.0684C16.659 3.94674 16.6356 4.8084 15.5823 5.04674ZM14.8573 1.8484C14.0723 2.02674 14.2656 2.96674 14.399 3.53674C14.5323 4.10674 14.759 5.03674 15.539 4.85674C16.319 4.67674 16.1156 3.73674 15.989 3.17674C15.8623 2.61674 15.6323 1.66674 14.8573 1.8484Z" fill="#2A5CAA"/>
<path d="M19.3823 4.68994L18.969 3.57161L17.709 3.56327L17.3073 4.67661H16.9923L18.0456 1.90827C18.0848 1.82271 18.1106 1.73166 18.1223 1.63827C18.1223 1.47161 17.8573 1.43161 17.7373 1.40161V1.31494H18.5973L19.8656 4.68661L19.3823 4.68994ZM18.3606 1.85661L17.7806 3.37827H18.9156L18.3606 1.85661Z" fill="#2A5CAA"/>
<path d="M22.2406 5.26994L22.649 3.67661L21.229 3.31328L20.8206 4.90661L20.399 4.79828L21.099 2.08994C21.189 1.73661 20.984 1.71494 20.7073 1.60828L20.7273 1.52661L21.6623 1.64661L21.284 3.12328L22.704 3.48661L23.0823 2.00994L23.5023 2.11661L22.669 5.37828L22.2406 5.26994Z" fill="#2A5CAA"/>
<path d="M26.4706 4.26493C26.6006 3.9316 26.6373 3.8066 26.2873 3.6216L25.8873 3.41326L24.4323 6.22493L24.0456 6.02493L25.5106 3.21327L25.099 2.99993C24.754 2.81993 24.654 2.92493 24.4673 3.21826L24.3306 3.1466L24.664 2.55493L26.8956 3.7216L26.609 4.33327L26.4706 4.26493Z" fill="#2A5CAA"/>
<path d="M27.2406 6.14492L26.199 7.38492L25.8656 7.10659L27.689 4.93992C27.924 4.65992 27.8156 4.52325 27.5923 4.27325L27.6473 4.20825L28.574 4.98659C29.074 5.40825 29.599 5.87992 29.0523 6.53159C28.4423 7.25825 27.7656 6.58159 27.2406 6.14492ZM28.564 5.23159C28.3106 5.01825 28.244 4.94992 28.0223 5.21492L27.3656 5.99992L27.5323 6.13825C27.919 6.47159 28.2806 6.69492 28.679 6.21992C28.9856 5.84659 28.9156 5.52659 28.564 5.23159V5.23159Z" fill="#2A5CAA"/>
<path d="M28.4606 9.78505C27.8123 8.92005 28.3306 8.24505 29.0623 7.69505C29.794 7.14505 30.5906 6.83172 31.2423 7.69505C31.894 8.55839 31.349 9.23839 30.629 9.77839C29.909 10.3184 29.109 10.6501 28.4606 9.78505ZM31.0856 7.81672C30.6023 7.17339 29.8256 7.73672 29.3573 8.08839C28.889 8.44005 28.1373 9.02839 28.6173 9.66839C29.0973 10.3084 29.8756 9.73672 30.3356 9.39172C30.7956 9.04672 31.5623 8.45339 31.0856 7.81672Z" fill="#2A5CAA"/>
<path d="M32.239 10.3216C32.5723 10.1816 32.534 10.0016 32.449 9.68494L32.5273 9.65161L33.6273 12.2716L30.524 13.5749L30.3573 13.1733L33.2806 11.9449L32.7123 10.5949L29.7906 11.8233L29.624 11.4216L32.239 10.3216Z" fill="#2A5CAA"/>
<path d="M30.854 15.5001C30.6873 14.4317 31.4706 14.0834 32.3756 13.9467C33.2806 13.8101 34.1306 13.9117 34.2906 14.9851C34.4473 16.0334 33.6523 16.3951 32.7623 16.5284C31.8723 16.6617 31.0156 16.5734 30.854 15.5001ZM34.099 15.0201C33.979 14.2234 33.0273 14.3534 32.449 14.4384C31.8706 14.5234 30.929 14.6867 31.0473 15.4767C31.1656 16.2667 32.1223 16.1434 32.6906 16.0501C33.259 15.9567 34.2156 15.8067 34.099 15.0201Z" fill="#2A5CAA"/>
<path d="M34.1723 18.5568C31.4123 18.3168 31.0673 17.6851 31.1223 17.0418L31.3206 17.0034C31.2656 17.6518 32.6956 17.9918 33.8823 18.0951C34.2406 18.1268 34.2906 17.9501 34.364 17.6301H34.449L34.249 19.9318L30.8956 19.6401L30.934 19.2068L34.1006 19.4818L34.1723 18.5568Z" fill="#2A5CAA"/>
<path d="M30.2923 21.5083C30.6456 20.4867 31.4956 20.5383 32.3606 20.8417C33.2256 21.145 33.9306 21.6233 33.5756 22.6483C33.2206 23.6733 32.3573 23.6016 31.5073 23.3066C30.6573 23.0116 29.9323 22.5283 30.2923 21.5083ZM33.3906 22.58C33.654 21.82 32.7523 21.4917 32.2006 21.3C31.649 21.1083 30.739 20.8166 30.4773 21.5716C30.2156 22.3266 31.124 22.6533 31.6673 22.84C32.2106 23.0266 33.1323 23.3333 33.3906 22.58V22.58Z" fill="#2A5CAA"/>
<path d="M30.984 26.3134C31.289 26.4301 31.3856 26.4551 31.579 26.1467L31.8556 25.7001C32.0056 25.4567 31.964 25.4084 31.7356 25.2667L29.319 23.7667L29.5473 23.3967L31.964 24.8967C32.2706 25.0867 32.394 24.9517 32.604 24.6984L32.6756 24.7434L31.4356 26.7434L30.9023 26.4451L30.984 26.3134Z" fill="#2A5CAA"/>
<path d="M30.1206 27.5001C30.379 27.7584 30.504 27.5934 30.7373 27.4084L30.7973 27.4684L30.2173 28.2117L28.4023 26.3984L29.029 29.3984L28.8623 29.5651L26.4906 27.1834L26.7973 26.8751L28.6123 28.6884L27.9856 25.6884L28.1523 25.5217L30.1206 27.5001Z" fill="#2A5CAA"/>
<path d="M27.1323 30.1766C27.3156 30.4916 27.479 30.3633 27.7506 30.245L27.794 30.3183L27.0423 30.8866L25.7556 28.6666L25.589 31.7283L25.394 31.8416L23.7056 28.9333L24.0823 28.715L25.3706 30.9333L25.5373 27.8716L25.7306 27.7583L27.1323 30.1766Z" fill="#2A5CAA"/>
<path fill-rule="evenodd" clip-rule="evenodd" d="M18.3273 31.8332C18.6423 31.5649 18.8756 31.0799 19.384 31.0166C19.4521 31.0091 19.5208 31.0091 19.589 31.0166C20.3906 31.0982 20.589 32.2499 20.1106 32.7999C20.0422 32.8781 19.9586 32.9416 19.8649 32.9866C19.7713 33.0316 19.6694 33.0571 19.5656 33.0616C18.954 33.0766 18.7156 32.6299 18.419 32.2766C18.1056 32.5699 17.8523 32.9932 17.3506 33.0499C16.7523 33.1166 16.3506 32.6532 16.329 32.0732C16.3106 31.5199 16.629 30.9499 17.2723 31.0049C17.8023 31.0432 18.0756 31.4899 18.3273 31.8332ZM19.3273 32.7649C19.4321 32.7754 19.538 32.7636 19.638 32.7303C19.738 32.697 19.8297 32.6429 19.9073 32.5716C20.144 32.3416 20.2573 31.7799 20.0206 31.4599C19.9379 31.3697 19.8275 31.3095 19.7069 31.2887C19.5863 31.2679 19.4621 31.2876 19.354 31.3449C19.0206 31.5016 18.7606 31.8899 18.5356 32.1299C18.7656 32.3682 18.9323 32.7182 19.3273 32.7582V32.7649ZM16.9073 31.4132C16.4656 31.6999 16.3873 32.7316 17.0556 32.7766C17.6306 32.8166 17.9173 32.2649 18.2223 31.9816C17.984 31.6132 17.454 31.0549 16.9073 31.4066V31.4132Z" fill="#2A5CAA"/>
<path d="M27.119 15.2217C27.119 15.2217 25.229 21.0833 18.7023 21.0833V28.4717C18.7023 28.4717 20.979 28.3883 20.979 27.1117L21.0073 23.1667C21.0073 23.1667 28.099 20.305 27.119 15.2217Z" fill="#FFD040"/>
<path d="M18.7023 21.0283V22.0283C18.7023 22.0283 27.099 21.1383 27.099 15.0833C27.099 15.0833 25.9523 20.2499 18.7023 21.0283Z" fill="#F7941D"/>
<path d="M9.29395 15.2217C9.29395 15.2217 11.1823 21.0833 17.7106 21.0833V28.4717C17.7106 28.4717 15.4323 28.3883 15.4323 27.1117L15.404 23.1667C15.404 23.1667 8.32062 20.305 9.29395 15.2217Z" fill="#92278F"/>
<path d="M17.7106 21.0283V22.0283C17.7106 22.0283 9.32063 21.1383 9.32063 15.0833C9.32063 15.0833 10.4606 20.2499 17.7106 21.0283Z" fill="#662D91"/>
<path d="M24.1273 13.4167C24.1273 14.5869 23.7803 15.7308 23.1302 16.7038C22.48 17.6768 21.556 18.4351 20.4748 18.883C19.3937 19.3308 18.2041 19.4479 17.0563 19.2196C15.9086 18.9914 14.8544 18.4278 14.0269 17.6004C13.1995 16.7729 12.6359 15.7187 12.4077 14.571C12.1794 13.4232 12.2965 12.2336 12.7443 11.1525C13.1922 10.0713 13.9505 9.14727 14.9235 8.49714C15.8965 7.84701 17.0404 7.5 18.2106 7.5C19.7798 7.5 21.2848 8.12336 22.3943 9.23295C23.5039 10.3425 24.1273 11.8475 24.1273 13.4167V13.4167Z" fill="#5E8FC2"/>
<path d="M15.1823 9.65339C15.6823 9.68339 16.134 9.36672 16.4373 8.98672C16.5373 8.86172 16.3623 8.68339 16.2606 8.81005C15.9956 9.14339 15.624 9.42505 15.1823 9.39839C15.0156 9.38839 15.0156 9.63839 15.1823 9.64839V9.65339Z" fill="white"/>
<path d="M14.5056 9.40007C14.7706 9.14507 15.0173 8.8734 15.2806 8.6184C15.4116 8.49266 15.5526 8.37784 15.7023 8.27507C15.869 8.1534 16.429 7.8434 16.6473 7.9534C16.6873 7.97173 16.8356 7.91173 16.779 7.8834C16.4456 7.71673 16.224 7.85173 15.9023 7.96173C15.794 7.9984 15.9023 8.0334 15.9623 8.01007C16.1856 7.9334 16.3956 7.82673 16.6473 7.9534C16.6873 7.97173 16.8356 7.91173 16.779 7.8834C16.5123 7.75173 15.899 8.0584 15.6706 8.20173C15.1706 8.52173 14.7856 8.9934 14.359 9.40507C14.3173 9.44507 14.474 9.43007 14.5056 9.40507V9.40007Z" fill="white"/>
<path d="M12.4773 12.1668C12.3379 12.4403 12.2801 12.748 12.3106 13.0534C12.3106 13.1051 12.4773 13.0684 12.4773 13.0101C12.4502 12.7118 12.508 12.412 12.644 12.1451C12.6656 12.1001 12.5073 12.1168 12.4773 12.1668V12.1668Z" fill="white"/>
<path d="M12.5123 13.7567C12.4073 13.555 12.234 13.3817 12.304 13.14L12.1473 13.1817C12.2773 13.255 12.2323 13.3733 12.314 13.4733C12.339 13.5017 12.4706 13.4633 12.4706 13.4233V13.1283C12.4706 13.0983 12.304 13.1283 12.304 13.1717C12.304 13.215 12.2773 13.2467 12.2756 13.2867C12.2742 13.3282 12.2787 13.3697 12.289 13.41C12.3163 13.4963 12.3353 13.585 12.3456 13.675C12.3456 13.705 12.5123 13.675 12.5123 13.6317C12.5049 13.5414 12.4864 13.4524 12.4573 13.3667C12.4431 13.318 12.4397 13.2668 12.4473 13.2167C12.4566 13.1876 12.4644 13.1582 12.4706 13.1283C12.4706 13.0983 12.304 13.1283 12.304 13.1717V13.4667L12.459 13.4167C12.4303 13.3709 12.4131 13.3189 12.409 13.265C12.4011 13.2345 12.3865 13.2061 12.3663 13.1819C12.3462 13.1577 12.3209 13.1383 12.2923 13.125C12.2606 13.1067 12.149 13.125 12.1373 13.1667C12.0656 13.4167 12.2356 13.59 12.3456 13.8C12.3673 13.8417 12.5123 13.785 12.5123 13.7567V13.7567Z" fill="white"/>
<path d="M14.6756 9.28665C14.7014 9.29409 14.7284 9.29586 14.7549 9.29183C14.7813 9.2878 14.8066 9.27807 14.829 9.26332C14.8457 9.2526 14.8619 9.24092 14.8773 9.22832C14.9073 9.20832 14.8923 9.21165 14.829 9.23998C14.8403 9.27297 14.8481 9.30704 14.8523 9.34165L14.979 9.26998C14.909 9.25498 14.8123 9.22165 14.7473 9.28332C14.6823 9.34498 14.7606 9.34332 14.769 9.38332C14.7773 9.42332 14.8356 9.41998 14.8623 9.40998C14.8956 9.39832 14.9356 9.37998 14.9306 9.33832C14.9206 9.24832 14.7106 9.17165 14.6406 9.14665L14.564 9.24998H14.9806C15.0114 9.25233 15.042 9.24351 15.0668 9.22514C15.0916 9.20678 15.1089 9.1801 15.1156 9.14998C15.1473 9.03498 15.1156 8.86332 14.959 8.95665C14.8806 9.00332 14.969 9.04998 15.024 9.03665C15.049 9.03665 15.1056 8.99998 15.0906 8.96498C15.054 8.87665 14.8056 8.83998 14.7573 8.93998C14.709 9.03998 14.8506 8.99998 14.8856 8.97832C15.0073 8.90165 15.139 8.84665 15.2606 8.76998C15.354 8.71165 15.2173 8.66832 15.1573 8.70665C15.0356 8.78332 14.9023 8.83665 14.7823 8.91498L14.9106 8.95332C14.8823 9.01665 14.8073 8.97832 14.8856 9.00165C14.909 9.00165 14.9373 9.03665 14.9256 9.00165C14.9473 8.97832 14.9706 8.95498 14.9923 8.92998L15.0573 9.01165L14.9573 9.02998C14.9273 9.02998 14.9473 9.04665 14.9473 9.07998C14.9482 9.09441 14.9482 9.10889 14.9473 9.12332C14.9473 9.18498 14.9256 9.13998 14.989 9.13998H14.6273C14.579 9.13998 14.4606 9.20665 14.5506 9.24332C14.5923 9.25832 14.769 9.32665 14.774 9.37832L14.8423 9.30832L14.9323 9.33332C14.9303 9.32189 14.9257 9.31106 14.919 9.30165C14.9006 9.26665 14.904 9.28498 14.894 9.30165L14.8306 9.34498C14.7706 9.35498 14.8906 9.36165 14.8873 9.36165C14.9306 9.36998 15.0256 9.36165 15.0156 9.28998C15.0056 9.21832 14.9923 9.12332 14.904 9.11332C14.8675 9.11265 14.8316 9.12249 14.8006 9.14165C14.7883 9.14898 14.7766 9.15735 14.7656 9.16665C14.729 9.19498 14.7423 9.16665 14.7656 9.17998C14.704 9.15998 14.5756 9.24832 14.6706 9.27998L14.6756 9.28665Z" fill="white"/>
<path d="M16.0306 8.87341C15.9895 8.87779 15.9509 8.89538 15.9206 8.92355C15.9096 8.93668 15.8995 8.95065 15.8906 8.96533C15.869 8.99542 15.869 8.99542 15.8423 8.99542H15.8823C15.8573 8.97851 15.8334 8.96009 15.8106 8.94026L15.669 8.99876C15.7043 9.02174 15.7424 9.04026 15.7823 9.05391C15.8212 9.05822 15.8605 9.05126 15.8956 9.03386C15.9056 9.03386 15.9523 8.99709 15.9156 8.99207C15.879 8.98706 15.8423 8.94695 15.8006 8.93692C15.759 8.92689 15.634 8.96366 15.659 8.99542C15.684 9.02717 15.7206 9.05559 15.7556 9.05559C15.8125 9.05714 15.8691 9.04748 15.9223 9.02717C15.9625 9.01345 15.999 8.99057 16.029 8.96032C16.0393 8.9482 16.0488 8.93535 16.0573 8.92188C16.0873 8.87842 16.0756 8.92188 16.0023 8.92188C16.029 8.92188 16.0823 8.90516 16.0973 8.87675C16.1123 8.84834 16.039 8.86004 16.0323 8.86171L16.0306 8.87341Z" fill="white"/>
<path d="M15.5473 8.68886C16.3806 7.91313 17.8223 9.42455 18.5123 8.22175C18.524 8.20174 18.474 8.2034 18.4673 8.2034C18.0573 8.25794 17.6666 8.41137 17.329 8.65049C17.2606 8.69386 17.424 8.67384 17.4523 8.65049L17.619 8.54706C18.4823 8.25567 18.5112 8.29126 17.7056 8.65382C17.5196 8.64712 17.335 8.61857 17.1556 8.56875C16.8813 8.49723 16.603 8.44153 16.3223 8.40192C16.1564 8.38011 15.9878 8.39495 15.8283 8.44539C15.6688 8.49583 15.5222 8.58064 15.399 8.69386C15.3656 8.72556 15.5173 8.70888 15.5456 8.68219L15.5473 8.68886Z" fill="white"/>
<path d="M18.4006 8.55862C18.5315 8.4372 18.6873 8.34603 18.8573 8.29154C19.0272 8.23706 19.207 8.2206 19.384 8.24332C19.4456 8.255 19.5756 8.16325 19.4806 8.1449C19.2697 8.11338 19.0544 8.12857 18.8499 8.18939C18.6454 8.25021 18.4568 8.35517 18.2973 8.4969C18.2123 8.56696 18.344 8.60533 18.4006 8.55862V8.55862Z" fill="white"/>
<path d="M16.2656 10.6834C16.3207 10.5778 16.3626 10.4658 16.3906 10.3501C16.3906 10.3301 16.3773 10.3251 16.3606 10.3217C15.7656 10.1884 14.9373 10.7851 14.6106 11.2384C14.5773 11.2851 14.6756 11.2751 14.694 11.2701C14.9794 11.1934 15.2734 11.1536 15.569 11.1517C15.6206 11.1517 15.7356 11.0701 15.6356 11.0717C15.3119 11.0753 14.99 11.1195 14.6773 11.2034L14.759 11.2351C14.9479 10.9969 15.1818 10.7981 15.4473 10.6501C15.612 10.5475 15.7897 10.4674 15.9756 10.4117C16.309 10.3117 16.1923 10.5034 16.1056 10.7067C16.0873 10.7484 16.2456 10.7301 16.2723 10.6834H16.2656Z" fill="white"/>
<path d="M15.964 11.0338C15.874 10.877 15.7006 10.8119 15.7223 10.6051C15.7223 10.5384 15.6206 10.5384 15.5856 10.5717C15.4051 10.7293 15.2097 10.8689 15.0023 10.9888L15.1256 11.0538C15.3173 10.837 15.5856 10.7686 15.844 10.6618C15.9456 10.6184 15.8556 10.525 15.7706 10.5617C15.484 10.6802 15.2023 10.7619 14.989 11.0021C14.9206 11.0805 15.0623 11.0989 15.1106 11.0672C15.3178 10.9469 15.5131 10.8073 15.694 10.6501L15.559 10.6168C15.5323 10.857 15.7123 10.9237 15.8173 11.1056C15.8556 11.1723 16.0073 11.1056 15.964 11.0338Z" fill="white"/>
<path d="M16.1756 10.3333C15.6156 10.3533 15.274 10.7033 14.9006 11.0799L15.049 11.0466L14.8973 11.1016C14.9324 11.1401 14.9735 11.1728 15.019 11.1983C15.0422 11.2042 15.0664 11.205 15.09 11.2007C15.1136 11.1964 15.136 11.187 15.1556 11.1733H15.1656C15.189 11.1566 15.189 11.1383 15.1556 11.1383C15.0364 11.1349 14.9177 11.1564 14.8073 11.2016C14.709 11.2433 14.8623 11.2399 14.9006 11.2233L15.0323 11.1749L15.1706 11.1499C15.1254 11.124 15.0844 11.0914 15.049 11.0533C15.019 11.0266 14.8723 11.0833 14.8973 11.1083C14.9256 11.1366 15.024 11.0966 15.0473 11.0749C15.3523 10.7666 15.634 10.4216 16.1056 10.4083C16.1473 10.4083 16.2823 10.3399 16.1756 10.3433V10.3333Z" fill="white"/>
<path d="M23.1373 10.8899C23.1806 10.7233 23.249 10.5849 23.304 10.4316L23.1573 10.4766C23.3023 10.5199 23.3323 10.6316 23.394 10.7583C23.4123 10.7966 23.5606 10.7583 23.5606 10.7149C23.5476 10.6274 23.5194 10.5428 23.4773 10.4649C23.4523 10.4299 23.3106 10.4649 23.3106 10.5083C23.3126 10.6593 23.2986 10.8101 23.269 10.9583L23.4356 10.9233L23.3106 10.6316L23.154 10.6799C23.2546 10.7764 23.3665 10.8604 23.4873 10.9299C23.514 10.9449 23.6656 10.9099 23.644 10.8816C23.4123 10.5683 23.224 10.2149 22.9306 9.95826C22.8973 9.92826 22.7523 9.98993 22.779 10.0133C23.069 10.2733 23.2556 10.6149 23.484 10.9249L23.639 10.8749C23.5185 10.8048 23.4067 10.7209 23.3056 10.6249C23.2823 10.6016 23.139 10.6399 23.1506 10.6749L23.2656 10.9666C23.2806 11.0033 23.4173 10.9666 23.4323 10.9316C23.4628 10.778 23.4768 10.6215 23.474 10.4649L23.3073 10.5083C23.3486 10.5864 23.3768 10.6709 23.3906 10.7583L23.5573 10.7149C23.489 10.5716 23.4556 10.4616 23.2923 10.4116C23.259 10.4016 23.1623 10.4116 23.1473 10.4583C23.0923 10.6116 23.0256 10.7583 22.9806 10.9166C22.9706 10.9533 23.129 10.9316 23.1473 10.8899H23.1373Z" fill="white"/>
<path d="M24.0256 12.9116C24.0756 12.8916 24.0473 12.8999 24.004 12.8866C23.9823 12.8812 23.9598 12.8801 23.9378 12.8836C23.9157 12.887 23.8946 12.8948 23.8756 12.9066C23.779 12.9666 23.8356 13.1299 23.8523 13.2166C23.869 13.3033 23.9856 13.2166 24.0073 13.1966C24.0269 13.1755 24.0407 13.1496 24.0473 13.1216C24.0465 13.1138 24.0465 13.106 24.0473 13.0983L24.0256 13.1183H24.1056C24.1356 13.1183 24.2306 13.0999 24.2173 13.0516C24.2173 13.0316 24.184 13.0266 24.1673 13.0266C24.0123 13.0266 24.0106 13.1933 23.909 13.2749L24.0056 13.2416L24.0556 13.2666C24.0423 13.2183 23.9506 13.2483 23.9256 13.2666H23.9156L23.9956 13.2449C24.0356 13.2449 23.9956 13.2316 23.9956 13.1983C23.9956 13.1649 23.9823 13.1583 23.9773 13.1383C23.964 13.0849 23.8106 13.1199 23.8106 13.1699V13.5449C23.8106 13.6033 23.9123 13.5783 23.9406 13.5583C24.0006 13.5183 24.1073 13.3283 23.9956 13.2866C23.9473 13.2699 23.8006 13.3416 23.869 13.3649C23.909 13.3799 23.859 13.4983 23.8406 13.5099L23.9706 13.5249V13.1433L23.804 13.1749C23.8323 13.2866 23.894 13.3766 24.0173 13.3016H23.8873C23.8873 13.3199 23.9206 13.3266 23.9373 13.3249C24.0906 13.3249 24.094 13.1583 24.194 13.0783L24.099 13.1099L24.049 13.0849L24.1606 13.0166C24.0782 13.0088 23.9951 13.0238 23.9206 13.0599C23.8723 13.0916 23.8806 13.1449 23.8456 13.1866L24.0006 13.1666C23.9859 13.1014 23.977 13.035 23.974 12.9683C23.9715 12.9573 23.9715 12.9459 23.974 12.9349C23.9406 12.9949 23.854 12.9549 23.9006 12.9716C23.9543 12.992 24.0136 12.992 24.0673 12.9716C24.1723 12.9299 24.0756 12.8766 24.004 12.9049L24.0256 12.9116Z" fill="white"/>
<path d="M23.9206 14.5266C23.8012 14.5709 23.7038 14.66 23.649 14.7749H23.804V14.4416C23.804 14.3699 23.6556 14.4066 23.6373 14.4599C23.5823 14.7254 23.5823 14.9994 23.6373 15.2649C23.6373 15.3216 23.7756 15.2799 23.7923 15.2449C23.8243 15.1869 23.8388 15.1209 23.834 15.0549C23.834 14.9999 23.7423 14.9416 23.809 14.9782C23.8276 14.9899 23.8478 14.9988 23.869 15.0049C23.8918 15.0097 23.9154 15.0082 23.9375 15.0006C23.9595 14.9929 23.979 14.9795 23.994 14.9616C24.0596 14.8463 24.0881 14.7136 24.0756 14.5816C24.0622 14.4247 23.9937 14.2777 23.8823 14.1666C23.8473 14.1316 23.7723 14.1666 23.7423 14.1849C23.5756 14.3232 23.599 14.4799 23.6023 14.6849C23.6023 14.7382 23.769 14.7066 23.769 14.6416C23.769 14.4749 23.7406 14.3382 23.879 14.2182L23.739 14.2366C23.8224 14.3173 23.8833 14.4184 23.9156 14.5299C23.9486 14.6756 23.9279 14.8283 23.8573 14.9599L23.9806 14.9182C23.9006 14.8916 23.8523 14.8349 23.7623 14.8699C23.6156 14.9249 23.7123 15.1266 23.6556 15.2432L23.8106 15.2249C23.7581 14.9675 23.7581 14.7022 23.8106 14.4449L23.644 14.4632V14.7966C23.644 14.8682 23.7756 14.8282 23.799 14.7966C23.8223 14.7649 23.8823 14.6432 23.944 14.6299C24.0406 14.6066 24.0173 14.5216 23.9206 14.5449V14.5266Z" fill="white"/>
<path d="M12.899 11.2666C12.7023 11.5483 12.4623 11.8416 12.4223 12.1949C12.4123 12.2749 12.5373 12.2733 12.5473 12.1949C12.584 11.8716 12.8273 11.5883 13.0073 11.3299C13.054 11.2633 12.9456 11.2016 12.899 11.2666Z" fill="white"/>
<path d="M12.3723 13.6482C12.594 14.3632 13.094 14.8882 13.2856 15.6482C13.4367 16.3401 13.744 16.9883 14.184 17.5432C14.444 17.8582 14.8856 18.2732 15.3256 18.2732C15.6056 18.2732 15.6256 17.7082 15.8456 17.6066C15.8863 17.5838 15.9222 17.5533 15.9511 17.5167C15.98 17.4801 16.0014 17.4381 16.0141 17.3932C16.0268 17.3483 16.0305 17.3014 16.0251 17.2551C16.0196 17.2087 16.0051 17.1639 15.9823 17.1232C15.649 16.6832 15.884 16.4099 16.2656 16.1482C16.5392 15.9532 16.7947 15.734 17.029 15.4932C17.1423 15.3799 17.3623 15.0816 17.2906 14.9099C17.124 14.5149 16.4573 14.8966 16.1123 14.6099C15.7673 14.3232 15.6423 13.8832 15.4923 13.5049C15.2701 13.1793 15.2756 13.0321 15.509 13.0632C15.6212 13.2723 15.7016 13.497 15.7473 13.7299C15.8473 14.0632 16.1506 14.6349 16.514 14.7299C17.059 14.8799 18.419 14.2666 18.2473 13.5966C18.1523 13.2232 17.224 13.1432 17.069 12.9182C17.3706 13.3549 18.114 13.4182 18.6323 13.4999C19.579 13.6532 19.7256 14.2016 20.1673 14.9116C20.3723 15.2449 20.6406 15.4916 21.0356 15.5099C21.1173 15.5099 21.1173 15.3882 21.0356 15.3849C20.1823 15.3432 20.0356 14.1499 19.579 13.6332C19.389 13.4149 18.9123 13.4232 18.6656 13.3799C18.0156 13.2632 17.4723 13.1949 16.9656 12.7132C16.9546 12.7033 16.9404 12.6976 16.9255 12.6971C16.9107 12.6965 16.8961 12.7013 16.8844 12.7104C16.8726 12.7195 16.8645 12.7325 16.8614 12.747C16.8583 12.7616 16.8604 12.7767 16.8673 12.7899C16.9406 12.9382 17.0873 13.2899 17.3006 13.3282L17.5173 13.3682C17.8073 13.4032 17.8973 13.6732 17.7873 14.1816C17.6078 14.2915 17.4213 14.3895 17.229 14.4749C15.8323 15.1866 16.1306 13.1932 15.3806 12.7766C15.3709 12.7715 15.3601 12.769 15.3491 12.7692C15.3382 12.7695 15.3275 12.7725 15.318 12.7779C15.3085 12.7834 15.3006 12.7912 15.2949 12.8006C15.2893 12.81 15.2861 12.8206 15.2856 12.8316C15.249 13.4982 15.6473 14.7016 16.374 14.9332C16.4787 14.9797 16.5929 15.0008 16.7073 14.9949C17.5123 14.7732 16.8356 15.4949 16.7623 15.5749C16.519 15.8166 15.7623 16.1582 15.6306 16.5299C15.5506 16.7616 15.8706 17.4516 15.6523 17.5582C15.2206 17.7699 15.5106 18.3732 14.7906 17.9366C13.9856 17.4466 13.634 16.4716 13.404 15.6182C13.3545 15.3783 13.2866 15.1426 13.2006 14.9132C12.994 14.4599 12.6423 14.1132 12.4906 13.6266C12.4673 13.5499 12.3456 13.5832 12.3706 13.6599L12.3723 13.6482Z" fill="white"/>
<path d="M21.0673 15.4333C21.0856 15.0783 20.974 14.7333 21.0506 14.38C21.159 13.895 21.759 13.4517 22.234 13.6867C22.3056 13.7217 22.369 13.6133 22.2973 13.5783C21.8923 13.3783 21.5223 13.55 21.224 13.8533C20.7606 14.3267 20.9723 14.8533 20.9423 15.4333C20.9423 15.515 21.064 15.515 21.0673 15.4333V15.4333Z" fill="white"/>
<path d="M22.179 13.6551C22.2574 13.7483 22.3309 13.8457 22.399 13.9468C22.4856 14.0434 22.6523 14.0001 22.719 14.1301C22.7679 14.2322 22.807 14.3388 22.8356 14.4484C22.8673 14.5618 22.7906 14.6651 22.8356 14.7818C22.8606 14.8584 22.9806 14.8251 22.9556 14.7484C22.9173 14.6351 22.9873 14.5301 22.9556 14.4151C22.9294 14.307 22.892 14.202 22.844 14.1018C22.8295 14.0608 22.8062 14.0236 22.7757 13.9927C22.7451 13.9619 22.7081 13.9382 22.6673 13.9234C22.459 13.8551 22.414 13.6968 22.2673 13.5651C22.209 13.5118 22.119 13.6001 22.179 13.6534V13.6551Z" fill="white"/>
<path d="M22.8356 14.79C22.929 14.8917 22.8056 14.9217 22.724 14.9567C22.6517 14.9876 22.5926 15.0431 22.5573 15.1133C22.4673 15.28 22.6973 15.4267 22.7773 15.545C22.8223 15.6117 22.9306 15.545 22.8856 15.4817C22.8406 15.4183 22.7073 15.315 22.6656 15.215C22.624 15.115 22.8323 15.0483 22.8906 15.0167C23.0406 14.94 23.0306 14.8117 22.9273 14.6983C22.8723 14.64 22.7856 14.7283 22.839 14.7867L22.8356 14.79Z" fill="white"/>
<path d="M22.8906 15.5285C22.8906 15.4884 22.869 15.4017 22.9123 15.3733C22.9556 15.345 23.0356 15.4067 23.0673 15.4251C23.1356 15.4684 23.199 15.36 23.1306 15.3183C23.0934 15.2874 23.0493 15.2659 23.002 15.2557C22.9546 15.2455 22.9056 15.247 22.859 15.2599C22.759 15.3083 22.7556 15.4267 22.7656 15.5285C22.7756 15.6302 22.899 15.6086 22.8906 15.5285Z" fill="white"/>
<path d="M23.0673 15.3918C23.0721 15.5601 23.0397 15.7274 22.9723 15.8818C22.9356 15.9535 23.044 16.0168 23.0806 15.9451C23.1593 15.7715 23.1975 15.5823 23.1923 15.3918C23.1923 15.3118 23.0706 15.3118 23.0673 15.3918Z" fill="white"/>
<path d="M23.0156 16.0166C23.2117 15.9913 23.4031 15.938 23.584 15.8582C23.6606 15.8349 23.6273 15.7132 23.5506 15.7382C23.3805 15.8145 23.2003 15.8661 23.0156 15.8916C22.9356 15.8916 22.934 16.0199 23.0156 16.0166Z" fill="white"/>
<path d="M23.609 15.735C23.4856 15.6667 23.344 15.5683 23.4123 15.4017C23.4769 15.288 23.5745 15.1968 23.6923 15.14C23.7043 15.1306 23.7125 15.1171 23.7154 15.102C23.7183 15.087 23.7156 15.0714 23.7079 15.0582C23.7001 15.045 23.6879 15.035 23.6734 15.0302C23.6589 15.0253 23.6431 15.0258 23.629 15.0317C23.5457 15.0709 23.4712 15.1266 23.4099 15.1953C23.3486 15.2641 23.3018 15.3444 23.2723 15.4317C23.2306 15.6217 23.4006 15.765 23.5456 15.8367C23.6173 15.8767 23.6806 15.7683 23.609 15.73V15.735Z" fill="white"/>
<path d="M23.7356 15.1015C23.809 14.9599 23.929 14.8532 23.9973 14.7065C24.0451 14.5496 24.0582 14.3841 24.0356 14.2215C24.0332 14.2067 24.0256 14.1932 24.0141 14.1835C24.0027 14.1738 23.9881 14.1685 23.9731 14.1685C23.9581 14.1685 23.9436 14.1738 23.9321 14.1835C23.9207 14.1932 23.9131 14.2067 23.9106 14.2215C23.9361 14.3951 23.9125 14.5724 23.8423 14.7332C23.7806 14.8432 23.6856 14.9266 23.6273 15.0382C23.5906 15.1099 23.699 15.1732 23.7356 15.1015V15.1015Z" fill="white"/>
<path d="M23.914 14.1401C23.7681 14.2516 23.6608 14.4061 23.6073 14.5817C23.5204 14.7704 23.4679 14.973 23.4523 15.1801C23.4547 15.1949 23.4623 15.2084 23.4738 15.2181C23.4852 15.2278 23.4998 15.2332 23.5148 15.2332C23.5298 15.2332 23.5444 15.2278 23.5558 15.2181C23.5672 15.2084 23.5749 15.1949 23.5773 15.1801C23.5897 15.0225 23.6269 14.8678 23.6873 14.7217C23.7406 14.5667 23.8256 14.3334 23.9773 14.2484C23.9893 14.239 23.9975 14.2255 24.0004 14.2104C24.0033 14.1954 24.0006 14.1798 23.9929 14.1666C23.9851 14.1534 23.9729 14.1434 23.9584 14.1386C23.9439 14.1337 23.9281 14.1342 23.914 14.1401V14.1401Z" fill="white"/>
<path d="M23.0223 14.805C22.9673 14.2217 23.6756 14.2167 23.6356 13.855C23.5956 13.4933 23.1356 13.4083 23.484 12.9383C23.6928 12.6153 23.777 12.2272 23.7206 11.8467C23.684 11.4117 23.0773 11.1067 23.2423 10.6283C23.269 10.5517 23.1473 10.5183 23.1223 10.595C23.0456 10.815 23.0156 10.9833 23.1773 11.175C23.6073 11.675 23.7706 12.3067 23.3756 12.8767C23.3206 12.9533 23.1756 13.1083 23.189 13.2217C23.2273 13.555 23.649 13.8217 23.1523 14.155C22.8923 14.3217 22.8706 14.51 22.8973 14.805C22.8973 14.885 23.0306 14.8867 23.0223 14.805V14.805Z" fill="white"/>
<path d="M23.869 12.8884C23.866 13.0196 23.8817 13.1504 23.9156 13.2771C23.9706 13.4223 24.1056 13.4306 24.2273 13.3605C24.2355 13.3557 24.2425 13.349 24.2478 13.341C24.253 13.3331 24.2564 13.324 24.2577 13.3145C24.259 13.3051 24.2581 13.2955 24.2552 13.2864C24.2522 13.2773 24.2472 13.269 24.2406 13.2621C24.2106 13.2371 24.1756 13.2204 24.144 13.197C24.079 13.1487 24.0173 13.2571 24.0806 13.3038C24.104 13.3222 24.1306 13.3322 24.1523 13.3505C24.1523 13.3172 24.1606 13.2855 24.164 13.2521C24.0706 13.3055 24.039 13.2738 24.0173 13.1754C24.002 13.0805 23.9942 12.9845 23.994 12.8884C23.994 12.8084 23.864 12.8084 23.869 12.8884V12.8884Z" fill="white"/>
<path d="M23.099 10.0382C22.844 9.45658 22.349 9.12325 21.909 8.69158C21.8506 8.63491 21.7623 8.72325 21.8206 8.77991C22.2523 9.20325 22.7406 9.52825 22.9873 10.1016C23.0206 10.1749 23.1273 10.1116 23.0956 10.0382H23.099Z" fill="white"/>
<path d="M20.8873 8.05342C20.634 8.32701 20.1156 8.04341 19.814 7.98002C19.5123 7.91663 19.1623 8.00671 18.8623 8.02173C18.7656 8.02173 16.7973 8.09513 16.8006 7.94499C16.7982 7.93015 16.7906 7.91666 16.7791 7.90692C16.7677 7.89719 16.7531 7.89185 16.7381 7.89185C16.7231 7.89185 16.7086 7.89719 16.6971 7.90692C16.6857 7.91666 16.678 7.93015 16.6756 7.94499C16.6756 8.12683 16.709 8.18355 16.894 8.21691C17.3073 8.29365 17.8656 8.1385 18.2956 8.14184C18.9956 8.14184 19.6556 8.0284 20.319 8.30866C20.6223 8.43378 20.7606 8.3804 20.9756 8.14184C21.0306 8.08178 20.9423 7.99337 20.8873 8.05342Z" fill="white"/>
<path d="M19.679 8.09505C19.5361 8.26481 19.3848 8.42724 19.2256 8.58172C19.1082 8.67547 19.0193 8.80016 18.969 8.94172C18.9406 9.01672 19.0623 9.05005 19.089 8.97505C19.1511 8.83044 19.2513 8.70543 19.379 8.61338C19.5256 8.48505 19.634 8.32338 19.7673 8.18338C19.824 8.12505 19.7356 8.03672 19.679 8.09505V8.09505Z" fill="white"/>
<path d="M19.169 8.60505C18.8623 8.57169 18.7206 8.48327 18.4306 8.60505C17.9306 8.82693 17.3756 8.8703 16.8356 8.90367C16.8208 8.9061 16.8073 8.91372 16.7976 8.92518C16.7879 8.93664 16.7825 8.95119 16.7825 8.96622C16.7825 8.98126 16.7879 8.99581 16.7976 9.00727C16.8073 9.01873 16.8208 9.02635 16.8356 9.02878L17.0123 9.08884C17.0192 9.09328 17.027 9.09626 17.0351 9.09757C17.0432 9.09889 17.0515 9.09851 17.0595 9.09648C17.0675 9.09445 17.0749 9.09079 17.0814 9.08575C17.0879 9.0807 17.0933 9.07437 17.0973 9.06715C17.137 9.00118 17.1579 8.92562 17.1579 8.84861C17.1579 8.77161 17.137 8.69605 17.0973 8.63008C17.0886 8.61621 17.0751 8.6061 17.0594 8.60177C17.0436 8.59745 17.0268 8.59921 17.0123 8.60672L16.9873 8.62007C16.9156 8.65844 16.9873 8.7652 17.0506 8.7285C17.0256 8.74018 17.0623 8.94204 16.984 8.92369C16.9363 8.91259 16.8878 8.90589 16.839 8.90367V9.02878C17.219 9.00543 17.6023 8.95538 17.9806 8.902C18.1214 8.88235 18.2577 8.83891 18.384 8.77354C18.6506 8.64175 18.8973 8.69347 19.1723 8.7235C19.2523 8.7235 19.2506 8.60672 19.1723 8.59838L19.169 8.60505Z" fill="white"/>
<path d="M18.0056 8.8184C18.159 8.73173 18.2223 8.5734 18.3506 8.46173C18.479 8.35006 18.6056 8.36173 18.6723 8.19673C18.704 8.1234 18.5823 8.09006 18.5523 8.1634C18.5223 8.23673 18.4556 8.2584 18.3856 8.2934C18.3318 8.32027 18.2824 8.35511 18.239 8.39673C18.1273 8.4934 18.0723 8.63506 17.9456 8.71006C17.8756 8.75006 17.9456 8.85673 18.009 8.8184H18.0056Z" fill="white"/>
<path d="M17.4973 10.7817C17.4932 10.8252 17.4796 10.8674 17.4574 10.9051C17.4353 10.9428 17.4051 10.9752 17.369 11C17.3611 11.0052 17.3545 11.0121 17.3496 11.0201C17.3446 11.0281 17.3415 11.0371 17.3404 11.0465C17.3393 11.0558 17.3402 11.0653 17.3431 11.0742C17.3461 11.0832 17.3509 11.0914 17.3573 11.0983C17.4204 11.1631 17.4957 11.2146 17.579 11.25C17.789 11.355 17.634 11.5683 17.634 11.7317C17.634 11.84 17.604 11.85 17.494 11.85C17.384 11.85 17.2873 11.8617 17.224 11.7783C17.1856 11.7267 17.149 11.5733 17.194 11.5167C17.211 11.499 17.2251 11.4788 17.2356 11.4567C17.2431 11.4324 17.2443 11.4067 17.2391 11.3819C17.2338 11.3571 17.2223 11.3341 17.2056 11.315C17.114 11.2083 16.8956 10.9817 17.1306 10.8933C17.2606 10.8633 17.3957 10.8633 17.5256 10.8933C17.6056 10.9033 17.6056 10.7783 17.5256 10.7683C17.3256 10.7467 16.8406 10.72 16.9073 11.0633C16.9212 11.1441 16.9524 11.2209 16.999 11.2883C17.054 11.3733 17.1306 11.375 17.0673 11.4817C17.0448 11.5538 17.0413 11.6304 17.0571 11.7043C17.0729 11.7781 17.1074 11.8467 17.1573 11.9033C17.2606 11.9883 17.714 12.07 17.7556 11.8733C17.7673 11.8167 17.7556 11.76 17.7556 11.7067C17.7673 11.61 17.8306 11.5117 17.8106 11.41C17.7623 11.1683 17.579 11.1833 17.4373 11.0217C17.4373 11.055 17.4373 11.0867 17.424 11.12C17.4743 11.0863 17.5168 11.0423 17.5487 10.9908C17.5806 10.9394 17.6011 10.8817 17.609 10.8217C17.624 10.7433 17.5023 10.71 17.489 10.7883L17.4973 10.7817Z" fill="white"/>
<path d="M18.359 10.8817C18.2806 10.8817 18.1673 10.9134 18.1623 11.0118C18.1573 11.1103 18.2656 11.1503 18.349 11.1536C18.3586 11.1535 18.3681 11.1511 18.3767 11.1467C18.3853 11.1423 18.3927 11.136 18.3985 11.1283C18.4043 11.1206 18.4083 11.1116 18.4101 11.1021C18.4119 11.0927 18.4115 11.0829 18.409 11.0736C18.4058 11.0389 18.3918 11.0062 18.3691 10.9799C18.3464 10.9535 18.3161 10.935 18.2823 10.9268C18.234 10.9084 18.1973 10.9601 18.2056 11.0035C18.2068 11.0264 18.2142 11.0485 18.2268 11.0676C18.2394 11.0867 18.257 11.1021 18.2775 11.1121C18.2981 11.1221 18.321 11.1265 18.3438 11.1247C18.3666 11.1229 18.3885 11.1151 18.4073 11.1019C18.509 11.0302 18.4523 10.9168 18.3706 10.86C18.289 10.8033 18.2406 10.9218 18.3073 10.9668C18.3456 10.9952 18.3356 11.0235 18.3256 10.9668C18.3006 10.9918 18.274 11.0169 18.249 11.0435C18.2673 11.0435 18.284 11.0686 18.2756 11.0435C18.2756 11.0619 18.2756 11.0853 18.289 11.1036L18.349 11.0252C18.3323 11.0252 18.2973 11.0252 18.2856 11.0085C18.2856 11.0252 18.2856 11.0285 18.2856 11.0169C18.3057 11.0067 18.3282 11.0021 18.3506 11.0035C18.4306 11.0035 18.4306 10.8751 18.3506 10.8784L18.359 10.8817Z" fill="white"/>
<path d="M16.2473 10.6666C16.134 10.9416 16.3323 11.0233 16.3923 11.2733L16.484 11.2033C16.3472 11.1404 16.1927 11.1274 16.0473 11.1666C15.8506 11.1833 15.714 11.01 15.514 11C15.1806 10.9916 14.9923 11.22 14.8673 11.5C14.8594 11.5144 14.8574 11.5313 14.8617 11.5472C14.8661 11.5631 14.8765 11.5766 14.8906 11.585C15.1396 11.7381 15.4148 11.8438 15.7023 11.8966C15.7823 11.8966 15.7823 11.78 15.7023 11.7716C15.4371 11.7201 15.1835 11.6207 14.954 11.4783C14.954 11.5066 14.969 11.535 14.9756 11.5633C15.1173 11.2416 15.349 11.01 15.7206 11.19C15.7891 11.227 15.8619 11.2555 15.9373 11.275C16.104 11.3166 16.244 11.2116 16.4206 11.305C16.4316 11.3106 16.4439 11.3131 16.4562 11.312C16.4685 11.3109 16.4803 11.3063 16.4901 11.2988C16.4998 11.2913 16.5073 11.2811 16.5115 11.2695C16.5158 11.2579 16.5166 11.2454 16.514 11.2333C16.4656 11.0383 16.2773 10.9116 16.3673 10.6933C16.3973 10.62 16.2773 10.5866 16.2473 10.66V10.6666Z" fill="white"/>
<path d="M15.679 11.8067C15.5806 11.9101 15.4023 12.3267 15.3006 12.2834C14.9406 12.1351 13.834 11.9501 13.8456 11.4501C13.8606 10.9184 13.1123 10.8401 12.909 11.2834C12.8756 11.3551 12.984 11.4201 13.0173 11.3467C13.529 11.1801 13.7623 11.2551 13.719 11.5601C13.7143 11.6082 13.7248 11.6566 13.749 11.6984C13.8289 11.8143 13.9406 11.9046 14.0706 11.9584C14.4456 12.1467 15.0123 12.1951 15.3356 12.4584C15.3435 12.466 15.3532 12.4715 15.3638 12.4742C15.3744 12.477 15.3856 12.4769 15.3962 12.474C15.4067 12.4712 15.4164 12.4656 15.4242 12.4579C15.432 12.4502 15.4377 12.4406 15.4406 12.4301C15.5128 12.2273 15.6263 12.0417 15.774 11.8851C15.8306 11.8267 15.7423 11.7384 15.6856 11.7967L15.679 11.8067Z" fill="white"/>
<path d="M13.174 11.1434C13.2873 10.9651 13.4506 10.8317 13.5806 10.6651C13.7106 10.4984 13.7923 10.3184 13.914 10.1534L13.799 10.1384C13.8756 10.4034 13.9456 10.6384 14.2573 10.6751H14.3206C14.4317 10.6584 14.4834 10.7334 14.4756 10.9001C14.409 10.9417 14.329 10.9667 14.259 11.0017C14.0923 11.0817 14.014 11.4201 13.7873 11.2534C13.7206 11.2067 13.659 11.3151 13.724 11.3617C13.7518 11.3895 13.7856 11.4106 13.8227 11.4236C13.8599 11.4365 13.8995 11.4409 13.9385 11.4364C13.9776 11.4319 14.0152 11.4187 14.0484 11.3977C14.0817 11.3767 14.1098 11.3484 14.1306 11.3151C14.2086 11.2069 14.3123 11.1198 14.4323 11.0617C14.515 11.0357 14.5893 10.9879 14.6473 10.9234C14.6648 10.8983 14.6772 10.8698 14.6836 10.8398C14.69 10.8099 14.6903 10.7789 14.6846 10.7488C14.6788 10.7186 14.6671 10.69 14.6501 10.6644C14.6331 10.6389 14.6112 10.617 14.5856 10.6001C14.5022 10.5657 14.4125 10.5492 14.3223 10.5517C14.0306 10.5517 13.989 10.3284 13.9206 10.1051C13.9169 10.0937 13.9101 10.0836 13.9009 10.0759C13.8917 10.0683 13.8805 10.0634 13.8687 10.0618C13.8568 10.0603 13.8448 10.0621 13.8339 10.0671C13.823 10.0721 13.8138 10.0801 13.8073 10.0901C13.674 10.2717 13.5756 10.4717 13.4373 10.6501C13.3068 10.7871 13.1834 10.9306 13.0673 11.0801C13.024 11.1484 13.1323 11.2101 13.1756 11.1434H13.174Z" fill="white"/>
<path d="M13.7656 11.1399C13.6173 11.0583 13.4473 10.9083 13.524 10.7216C13.554 10.6466 13.4323 10.6149 13.404 10.6883C13.3056 10.9283 13.5073 11.1399 13.7023 11.2483C13.7164 11.2541 13.7322 11.2547 13.7467 11.2498C13.7612 11.2449 13.7735 11.2349 13.7812 11.2217C13.7889 11.2085 13.7916 11.193 13.7887 11.1779C13.7859 11.1629 13.7777 11.1494 13.7656 11.1399V11.1399Z" fill="white"/>
<path d="M15.4556 12.4271C15.5906 12.2719 15.769 12.1535 15.744 11.9266C15.7356 11.8482 15.6106 11.8465 15.619 11.9266C15.6406 12.1168 15.479 12.2136 15.3673 12.342C15.314 12.4021 15.4023 12.4905 15.4556 12.4304V12.4271Z" fill="white"/>
<path d="M14.599 12.0468C14.4961 11.9346 14.3589 11.8595 14.209 11.8333C14.1306 11.8183 14.0973 11.9401 14.1756 11.9551C14.3045 11.9751 14.4223 12.0394 14.509 12.1369C14.5623 12.1987 14.6506 12.1086 14.5973 12.0485L14.599 12.0468Z" fill="white"/>
<path d="M14.7556 11.237C14.5756 11.237 14.564 10.9835 14.6323 10.8617C14.6706 10.7916 14.564 10.7282 14.524 10.7983C14.4073 11.0068 14.4756 11.3488 14.7556 11.3621C14.8356 11.3621 14.8356 11.2404 14.7556 11.237Z" fill="white"/>
<path d="M13.909 10.1666C13.9706 9.97497 14.2156 9.87997 14.344 9.7333C14.4054 9.64066 14.4531 9.53961 14.4856 9.4333C14.5506 9.28497 14.709 9.2333 14.829 9.14163C14.8923 9.09497 14.829 8.98497 14.7656 9.03497C14.658 9.09837 14.5559 9.17086 14.4606 9.25163C14.3786 9.36271 14.3155 9.48661 14.274 9.6183C14.1756 9.83997 13.8673 9.88497 13.789 10.1333C13.764 10.2116 13.884 10.2433 13.909 10.1666Z" fill="white"/>
<path d="M14.1423 9.81168C14.4323 9.52002 14.6923 9.68335 15.0156 9.59002C15.1606 9.54668 15.194 9.46835 15.1823 9.32002C15.1799 9.30519 15.1722 9.29171 15.1608 9.28199C15.1493 9.27226 15.1348 9.26692 15.1198 9.26692C15.1048 9.26692 15.0902 9.27226 15.0788 9.28199C15.0673 9.29171 15.0597 9.30519 15.0573 9.32002C15.0573 9.60002 15.224 9.63335 15.4623 9.54168C15.6243 9.46629 15.7813 9.38056 15.9323 9.28502C16.0373 9.22502 16.1823 8.93668 16.2656 8.93335C16.2805 8.93092 16.2939 8.9233 16.3037 8.91185C16.3134 8.9004 16.3187 8.88587 16.3187 8.87085C16.3187 8.85583 16.3134 8.8413 16.3037 8.82985C16.2939 8.8184 16.2805 8.81078 16.2656 8.80835C16.1423 8.80835 16.099 8.83168 16.049 8.94668C15.974 9.14502 15.784 9.21835 15.6206 9.31668C15.5456 9.36168 15.1773 9.60002 15.1823 9.31668H15.0573C15.074 9.53502 14.6623 9.45502 14.5573 9.47335C14.3669 9.49451 14.1899 9.5818 14.0573 9.72002C14.0486 9.73222 14.0445 9.7471 14.0458 9.76203C14.047 9.77696 14.0535 9.79097 14.0641 9.80156C14.0747 9.81215 14.0887 9.81865 14.1036 9.81989C14.1185 9.82113 14.1334 9.81704 14.1456 9.80835L14.1423 9.81168Z" fill="white"/>
<path d="M15.154 9.23843C15.379 8.98676 15.6923 8.9051 16.0023 8.80843C16.274 8.7201 16.6823 8.4751 16.9406 8.72843C16.9973 8.78343 17.0873 8.6951 17.029 8.6401C16.7756 8.39676 16.4256 8.52176 16.134 8.62843C15.7656 8.76676 15.3456 8.83343 15.0656 9.1501C15.0106 9.2101 15.099 9.29843 15.154 9.23843Z" fill="white"/>
<path d="M16.2556 8.91537C16.3506 8.86199 16.3873 8.77024 16.4706 8.70684C16.554 8.64345 16.7656 8.66681 16.8806 8.68349C16.9606 8.6935 16.959 8.56838 16.8806 8.55837C16.7435 8.52716 16.6008 8.53117 16.4656 8.57005C16.344 8.62176 16.299 8.73687 16.1923 8.80694C16.1803 8.8164 16.172 8.8299 16.1692 8.84495C16.1663 8.85999 16.169 8.87557 16.1767 8.88879C16.1844 8.90202 16.1967 8.912 16.2112 8.91688C16.2257 8.92177 16.2415 8.92123 16.2556 8.91537V8.91537Z" fill="white"/>
</g>
<defs>
<clipPath id="clip0_1975_1273">
<rect width="35" height="35" fill="white" transform="translate(0.765625)"/>
</clipPath>
</defs>
</svg>
