<svg width="18" height="18" viewBox="0 0 18 18" fill="none" xmlns="http://www.w3.org/2000/svg">
<path d="M9.01562 11.9219C10.9141 11.9219 12.4531 10.3829 12.4531 8.48438C12.4531 6.5859 10.9141 5.04688 9.01562 5.04688C7.11715 5.04688 5.57812 6.5859 5.57812 8.48438C5.57812 10.3829 7.11715 11.9219 9.01562 11.9219Z" stroke="#102F39" stroke-miterlimit="10"/>
<path d="M3.49841 15.3079C4.01568 14.289 4.80497 13.4333 5.7788 12.8355C6.75263 12.2378 7.87296 11.9214 9.0156 11.9214C10.1582 11.9214 11.2786 12.2378 12.2524 12.8355C13.2262 13.4333 14.0155 14.289 14.5328 15.3079" stroke="#102F39" stroke-linecap="round" stroke-linejoin="round"/>
<path d="M15.2031 4.35938C15.9625 4.35938 16.5781 3.74377 16.5781 2.98438C16.5781 2.22498 15.9625 1.60938 15.2031 1.60938C14.4437 1.60938 13.8281 2.22498 13.8281 2.98438C13.8281 3.74377 14.4437 4.35938 15.2031 4.35938Z" stroke="#102F39" stroke-linecap="round" stroke-linejoin="round"/>
<path d="M15.2031 1.60938V0.578125" stroke="#102F39" stroke-linecap="round" stroke-linejoin="round"/>
<path d="M14.0086 2.29688L13.1234 1.78125" stroke="#102F39" stroke-linecap="round" stroke-linejoin="round"/>
<path d="M14.0086 3.67188L13.1234 4.1875" stroke="#102F39" stroke-linecap="round" stroke-linejoin="round"/>
<path d="M15.2031 4.35938V5.39062" stroke="#102F39" stroke-linecap="round" stroke-linejoin="round"/>
<path d="M16.3977 3.67188L17.2829 4.1875" stroke="#102F39" stroke-linecap="round" stroke-linejoin="round"/>
<path d="M16.3977 2.29688L17.2829 1.78125" stroke="#102F39" stroke-linecap="round" stroke-linejoin="round"/>
<path d="M17.2055 8.1835C17.2472 8.51125 17.2673 8.84139 17.2656 9.17178C17.2656 10.8035 16.7818 12.3985 15.8753 13.7552C14.9687 15.1119 13.6803 16.1694 12.1728 16.7938C10.6653 17.4182 9.00648 17.5816 7.40613 17.2633C5.80579 16.9449 4.33578 16.1592 3.182 15.0054C2.02821 13.8516 1.24248 12.3816 0.92415 10.7813C0.605822 9.18093 0.7692 7.52213 1.39362 6.01464C2.01805 4.50715 3.07547 3.21868 4.43217 2.31216C5.78888 1.40563 7.38393 0.92178 9.01563 0.92178C9.271 0.920168 9.52628 0.931642 9.78047 0.956155" stroke="#102F39" stroke-linecap="round" stroke-linejoin="round"/>
</svg>
