<svg width="21" height="22" viewBox="0 0 21 22" fill="none" xmlns="http://www.w3.org/2000/svg">
<path d="M17.2513 3.44488L1.96072 7.75152C1.83056 7.78711 1.71453 7.86195 1.62844 7.96586C1.54235 8.06977 1.49039 8.1977 1.47963 8.33221C1.46887 8.46671 1.49983 8.60127 1.56831 8.71755C1.63678 8.83382 1.73943 8.92616 1.86228 8.98199L8.88416 12.3043C9.02171 12.368 9.13218 12.4784 9.19588 12.616L12.5181 19.6378C12.574 19.7607 12.6663 19.8634 12.7826 19.9318C12.8989 20.0003 13.0334 20.0313 13.1679 20.0205C13.3024 20.0097 13.4304 19.9578 13.5343 19.8717C13.6382 19.7856 13.713 19.6696 13.7486 19.5394L18.0553 4.24879C18.0879 4.13721 18.0899 4.0189 18.0611 3.90627C18.0323 3.79364 17.9737 3.69084 17.8915 3.60863C17.8093 3.52643 17.7065 3.46785 17.5939 3.43904C17.4812 3.41023 17.3629 3.41225 17.2513 3.44488V3.44488Z" stroke="#102F39" stroke-linecap="round" stroke-linejoin="round"/>
<path d="M9.09717 12.4028L12.805 8.69495" stroke="#102F39" stroke-linecap="round" stroke-linejoin="round"/>
</svg>
