<svg width="21" height="21" viewBox="0 0 21 21" fill="none" xmlns="http://www.w3.org/2000/svg">
<path d="M12.1978 14.1284H3.76025" stroke="#102F39" stroke-width="1.5" stroke-linecap="round" stroke-linejoin="round"/>
<path d="M17.5103 14.1284H15.3228" stroke="#102F39" stroke-width="1.5" stroke-linecap="round" stroke-linejoin="round"/>
<path d="M13.7603 15.6909C14.6232 15.6909 15.3228 14.9914 15.3228 14.1284C15.3228 13.2655 14.6232 12.5659 13.7603 12.5659C12.8973 12.5659 12.1978 13.2655 12.1978 14.1284C12.1978 14.9914 12.8973 15.6909 13.7603 15.6909Z" stroke="#102F39" stroke-width="1.5" stroke-linecap="round" stroke-linejoin="round"/>
<path d="M7.19775 7.25342H3.76025" stroke="#102F39" stroke-width="1.5" stroke-linecap="round" stroke-linejoin="round"/>
<path d="M17.5103 7.25342H10.3228" stroke="#102F39" stroke-width="1.5" stroke-linecap="round" stroke-linejoin="round"/>
<path d="M8.76025 8.81592C9.6232 8.81592 10.3228 8.11636 10.3228 7.25342C10.3228 6.39047 9.6232 5.69092 8.76025 5.69092C7.89731 5.69092 7.19775 6.39047 7.19775 7.25342C7.19775 8.11636 7.89731 8.81592 8.76025 8.81592Z" stroke="#102F39" stroke-width="1.5" stroke-linecap="round" stroke-linejoin="round"/>
</svg>
