<svg width="26" height="27" viewBox="0 0 26 27" fill="none" xmlns="http://www.w3.org/2000/svg">
<path d="M13 18.541C15.2437 18.541 17.0625 16.7222 17.0625 14.4785C17.0625 12.2349 15.2437 10.416 13 10.416C10.7563 10.416 8.9375 12.2349 8.9375 14.4785C8.9375 16.7222 10.7563 18.541 13 18.541Z" stroke="#102F39" stroke-linecap="round" stroke-linejoin="round"/>
<path d="M19.9062 12.041C20.8526 12.0394 21.7861 12.259 22.6325 12.6822C23.4789 13.1054 24.2147 13.7205 24.7812 14.4785" stroke="#102F39" stroke-linecap="round" stroke-linejoin="round"/>
<path d="M1.21875 14.4785C1.78527 13.7205 2.52107 13.1054 3.36747 12.6822C4.21387 12.259 5.14745 12.0394 6.09375 12.041" stroke="#102F39" stroke-linecap="round" stroke-linejoin="round"/>
<path d="M7.15002 22.1972C7.68508 21.1015 8.51714 20.178 9.55141 19.532C10.5857 18.8861 11.7806 18.5436 13 18.5436C14.2194 18.5436 15.4144 18.8861 16.4486 19.532C17.4829 20.178 18.315 21.1015 18.85 22.1972" stroke="#102F39" stroke-linecap="round" stroke-linejoin="round"/>
<path d="M6.09375 12.041C5.47691 12.0416 4.87262 11.8667 4.3515 11.5367C3.83038 11.2066 3.41395 10.7351 3.15086 10.1771C2.88778 9.61919 2.78891 8.99791 2.86581 8.38587C2.9427 7.77384 3.19219 7.19632 3.58511 6.72081C3.97804 6.2453 4.49817 5.89143 5.08474 5.70054C5.67131 5.50966 6.30009 5.48964 6.89761 5.64284C7.49513 5.79604 8.03672 6.11612 8.45909 6.56569C8.88145 7.01525 9.16716 7.57573 9.28282 8.18164" stroke="#102F39" stroke-linecap="round" stroke-linejoin="round"/>
<path d="M16.7172 8.18164C16.8329 7.57573 17.1186 7.01525 17.5409 6.56569C17.9633 6.11612 18.5049 5.79604 19.1024 5.64284C19.6999 5.48964 20.3287 5.50966 20.9153 5.70054C21.5018 5.89143 22.022 6.2453 22.4149 6.72081C22.8078 7.19632 23.0573 7.77384 23.1342 8.38587C23.2111 8.99791 23.1122 9.61919 22.8491 10.1771C22.5861 10.7351 22.1696 11.2066 21.6485 11.5367C21.1274 11.8667 20.5231 12.0416 19.9063 12.041" stroke="#102F39" stroke-linecap="round" stroke-linejoin="round"/>
</svg>
