<svg width="21" height="22" viewBox="0 0 21 22" fill="none" xmlns="http://www.w3.org/2000/svg">
<path d="M6.5625 16.9062C8.01225 16.9062 9.1875 15.731 9.1875 14.2812C9.1875 12.8315 8.01225 11.6562 6.5625 11.6562C5.11275 11.6562 3.9375 12.8315 3.9375 14.2812C3.9375 15.731 5.11275 16.9062 6.5625 16.9062Z" stroke="#102F39" stroke-linecap="round" stroke-linejoin="round"/>
<path d="M2.625 18.875C3.08346 18.2637 3.67794 17.7676 4.36137 17.4259C5.0448 17.0842 5.7984 16.9063 6.5625 16.9062C7.3266 16.9063 8.0802 17.0842 8.76363 17.4259C9.44706 17.7676 10.0415 18.2637 10.5 18.875" stroke="#102F39" stroke-linecap="round" stroke-linejoin="round"/>
<path d="M6.5625 8.375C8.01225 8.375 9.1875 7.19975 9.1875 5.75C9.1875 4.30025 8.01225 3.125 6.5625 3.125C5.11275 3.125 3.9375 4.30025 3.9375 5.75C3.9375 7.19975 5.11275 8.375 6.5625 8.375Z" stroke="#102F39" stroke-linecap="round" stroke-linejoin="round"/>
<path d="M2.625 10.3438C3.08346 9.73247 3.67794 9.23633 4.36137 8.89462C5.0448 8.5529 5.7984 8.375 6.5625 8.375C7.3266 8.375 8.0802 8.5529 8.76363 8.89462C9.44706 9.23633 10.0415 9.73247 10.5 10.3438" stroke="#102F39" stroke-linecap="round" stroke-linejoin="round"/>
<path d="M14.4375 16.9062C15.8872 16.9062 17.0625 15.731 17.0625 14.2812C17.0625 12.8315 15.8872 11.6562 14.4375 11.6562C12.9878 11.6562 11.8125 12.8315 11.8125 14.2812C11.8125 15.731 12.9878 16.9062 14.4375 16.9062Z" stroke="#102F39" stroke-linecap="round" stroke-linejoin="round"/>
<path d="M10.5 18.875C10.9585 18.2637 11.5529 17.7676 12.2364 17.4259C12.9198 17.0842 13.6734 16.9062 14.4375 16.9062C15.2016 16.9062 15.9552 17.0842 16.6386 17.4259C17.3221 17.7676 17.9165 18.2637 18.375 18.875" stroke="#102F39" stroke-linecap="round" stroke-linejoin="round"/>
<path d="M14.4375 8.375C15.8872 8.375 17.0625 7.19975 17.0625 5.75C17.0625 4.30025 15.8872 3.125 14.4375 3.125C12.9878 3.125 11.8125 4.30025 11.8125 5.75C11.8125 7.19975 12.9878 8.375 14.4375 8.375Z" stroke="#102F39" stroke-linecap="round" stroke-linejoin="round"/>
<path d="M10.5 10.3438C10.9585 9.73247 11.5529 9.23633 12.2364 8.89462C12.9198 8.5529 13.6734 8.375 14.4375 8.375C15.2016 8.375 15.9552 8.5529 16.6386 8.89462C17.3221 9.23633 17.9165 9.73247 18.375 10.3438" stroke="#102F39" stroke-linecap="round" stroke-linejoin="round"/>
</svg>
