<svg width="21" height="22" viewBox="0 0 21 22" fill="none" xmlns="http://www.w3.org/2000/svg">
<path d="M6.5625 12.3125C8.37468 12.3125 9.84375 10.8434 9.84375 9.03125C9.84375 7.21907 8.37468 5.75 6.5625 5.75C4.75032 5.75 3.28125 7.21907 3.28125 9.03125C3.28125 10.8434 4.75032 12.3125 6.5625 12.3125Z" stroke="#102F39" stroke-linecap="round"/>
<path d="M12.4688 7.0625H20.3438" stroke="#102F39" stroke-linecap="round"/>
<path d="M12.4688 11H20.3438" stroke="#102F39" stroke-linecap="round"/>
<path d="M14.4375 14.9375H20.3438" stroke="#102F39" stroke-linecap="round"/>
<path d="M1.47656 16.25C1.76571 15.1207 2.42248 14.1198 3.34334 13.405C4.26421 12.6902 5.39678 12.3022 6.5625 12.3022C7.72822 12.3022 8.86079 12.6902 9.78166 13.405C10.7025 14.1198 11.3593 15.1207 11.6484 16.25" stroke="#102F39" stroke-linecap="round"/>
</svg>
