<svg width="24" height="20" viewBox="0 0 24 20" fill="none" xmlns="http://www.w3.org/2000/svg">
<path d="M1.03379 9.23303C0.992002 9.06547 0.988931 8.8906 1.02481 8.72169C1.06069 8.55277 1.13459 8.39424 1.24088 8.25815C1.34717 8.12205 1.48307 8.01195 1.63826 7.93622C1.79346 7.86048 1.96386 7.82109 2.13655 7.82104H21.9635C22.1361 7.82109 22.3065 7.86048 22.4617 7.93622C22.6169 8.01195 22.7528 8.12205 22.8591 8.25815C22.9654 8.39424 23.0393 8.55277 23.0752 8.72169C23.1111 8.8906 23.108 9.06547 23.0662 9.23303L21.0073 17.4673C20.8844 17.9592 20.6006 18.3959 20.2009 18.708C19.8013 19.0201 19.3089 19.1896 18.8018 19.1897H5.29817C4.79114 19.1896 4.29868 19.0201 3.89906 18.708C3.49945 18.3959 3.21561 17.9592 3.09265 17.4673L1.03379 9.23417V9.23303Z" stroke="black" stroke-linejoin="round"/>
<path d="M5.22852 7.82118L9.77597 1M18.8709 7.82118L14.3234 1" stroke="black" stroke-linecap="round"/>
<path d="M11.9992 16.12C13.2272 16.12 14.0712 15.276 14.0712 14.048V12.192C14.0712 10.964 13.2272 10.12 11.9992 10.12C10.7712 10.12 9.92719 10.964 9.92719 12.192V14.048C9.92719 15.276 10.7712 16.12 11.9992 16.12ZM11.9992 15.204C11.3912 15.204 10.9112 14.724 10.9112 14.116V12.12C10.9112 11.508 11.3912 11.028 11.9992 11.028C12.6072 11.028 13.0872 11.508 13.0872 12.12V14.116C13.0872 14.724 12.6072 15.204 11.9992 15.204Z" fill="black"/>
</svg>
