<svg width="32" height="32" viewBox="0 0 32 32" fill="none" xmlns="http://www.w3.org/2000/svg">
<path d="M11.6258 14.5325C16.9766 14.5325 21.3142 12.5806 21.3142 10.1727C21.3142 7.76491 16.9766 5.81299 11.6258 5.81299C6.27511 5.81299 1.9375 7.76491 1.9375 10.1727C1.9375 12.5806 6.27511 14.5325 11.6258 14.5325Z" stroke="#102F39" stroke-linecap="round" stroke-linejoin="round"/>
<path d="M1.9375 10.1729V15.017C1.9375 17.427 6.27303 19.3768 11.6258 19.3768C16.9786 19.3768 21.3142 17.427 21.3142 15.017V10.1729" stroke="#102F39" stroke-linecap="round" stroke-linejoin="round"/>
<path d="M7.75 14.1692V19.0134" stroke="#102F39" stroke-linecap="round" stroke-linejoin="round"/>
<path d="M21.3152 11.7107C25.7355 12.1224 29.0658 13.8785 29.0658 15.9857C29.0658 18.3956 24.7303 20.3454 19.3775 20.3454C17.0038 20.3454 14.824 19.9579 13.1406 19.3281" stroke="#102F39" stroke-linecap="round" stroke-linejoin="round"/>
<path d="M9.6875 19.292V20.83C9.6875 23.24 14.023 25.1898 19.3758 25.1898C24.7286 25.1898 29.0642 23.24 29.0642 20.83V15.9858" stroke="#102F39" stroke-linecap="round" stroke-linejoin="round"/>
<path d="M23.252 19.9822V24.8263" stroke="#102F39" stroke-linecap="round" stroke-linejoin="round"/>
<path d="M15.502 14.1692V24.8264" stroke="#102F39" stroke-linecap="round" stroke-linejoin="round"/>
</svg>
