<svg width="24" height="24" viewBox="0 0 24 24" fill="none" xmlns="http://www.w3.org/2000/svg">
<path d="M11.7545 16.1532C14.2832 16.1532 16.3332 14.0974 16.3332 11.5613C16.3332 9.02533 14.2832 6.96948 11.7545 6.96948C9.22574 6.96948 7.17578 9.02533 7.17578 11.5613C7.17578 14.0974 9.22574 16.1532 11.7545 16.1532Z" stroke="#102F39" stroke-miterlimit="10"/>
<path d="M4.4043 20.6763C5.09329 19.3153 6.14461 18.1722 7.44174 17.3737C8.73887 16.5752 10.2311 16.1526 11.7531 16.1526C13.2751 16.1526 14.7674 16.5752 16.0645 17.3737C17.3616 18.1722 18.4129 19.3153 19.1019 20.6763" stroke="#102F39" stroke-linecap="round" stroke-linejoin="round"/>
<path d="M19.9955 6.05093C21.007 6.05093 21.827 5.22859 21.827 4.21419C21.827 3.19978 21.007 2.37744 19.9955 2.37744C18.984 2.37744 18.1641 3.19978 18.1641 4.21419C18.1641 5.22859 18.984 6.05093 19.9955 6.05093Z" stroke="#102F39" stroke-linecap="round" stroke-linejoin="round"/>
<path d="M19.9961 2.37756V1" stroke="#102F39" stroke-linecap="round" stroke-linejoin="round"/>
<path d="M18.4036 3.29544L17.2246 2.60718" stroke="#102F39" stroke-linecap="round" stroke-linejoin="round"/>
<path d="M18.4036 5.13281L17.2246 5.82108" stroke="#102F39" stroke-linecap="round" stroke-linejoin="round"/>
<path d="M19.9961 6.05078V7.42834" stroke="#102F39" stroke-linecap="round" stroke-linejoin="round"/>
<path d="M21.5869 5.13281L22.7659 5.82108" stroke="#102F39" stroke-linecap="round" stroke-linejoin="round"/>
<path d="M21.5869 3.29544L22.7659 2.60718" stroke="#102F39" stroke-linecap="round" stroke-linejoin="round"/>
<path d="M22.6633 11.1592C22.7188 11.5971 22.7456 12.0381 22.7434 12.4794C22.7434 14.659 22.0989 16.7897 20.8914 18.602C19.684 20.4144 17.9677 21.8269 15.9598 22.661C13.9518 23.4951 11.7423 23.7133 9.61069 23.2881C7.47905 22.8629 5.52102 21.8133 3.9842 20.2721C2.44738 18.7308 1.40079 16.7672 0.976778 14.6294C0.55277 12.4916 0.770386 10.2758 1.60211 8.26205C2.43383 6.24833 3.8423 4.52717 5.64942 3.31622C7.45653 2.10528 9.58112 1.45894 11.7545 1.45894C12.0947 1.45679 12.4347 1.47211 12.7733 1.50486" stroke="#102F39" stroke-linecap="round" stroke-linejoin="round"/>
</svg>
