<svg width="25" height="24" viewBox="0 0 25 24" fill="none" xmlns="http://www.w3.org/2000/svg">
<path d="M23.7656 21.6651L17.2745 15.1682C18.4661 13.6786 19.1823 11.7823 19.1823 9.71979C19.1823 4.90156 15.2807 1 10.474 1C5.66146 1 1.76562 4.90729 1.76562 9.71979C1.76562 14.5323 5.66719 18.4396 10.474 18.4396C12.5479 18.4396 14.45 17.712 15.9453 16.5031L22.4307 23L23.7656 21.6651ZM4.9625 15.2427C3.4901 13.7703 2.68229 11.8109 2.68229 9.72552C2.68229 7.6401 3.49583 5.68073 4.9625 4.20833C6.42917 2.73594 8.39427 1.91667 10.474 1.91667C12.5536 1.91667 14.513 2.73021 15.9854 4.2026C17.4578 5.675 18.2656 7.63437 18.2656 9.71979C18.2656 11.8052 17.4521 13.7646 15.9854 15.237C14.513 16.7094 12.5536 17.5229 10.474 17.5229C8.39427 17.5286 6.4349 16.7151 4.9625 15.2427Z" fill="#102F39"/>
</svg>
