<svg width="24" height="24" viewBox="0 0 24 24" fill="none" xmlns="http://www.w3.org/2000/svg">
<path d="M1.03379 11.233C0.992002 11.0655 0.988931 10.8906 1.02481 10.7217C1.06069 10.5528 1.13459 10.3942 1.24088 10.2581C1.34717 10.122 1.48307 10.012 1.63826 9.93622C1.79346 9.86048 1.96386 9.82109 2.13655 9.82104H21.9635C22.1361 9.82109 22.3065 9.86048 22.4617 9.93622C22.6169 10.012 22.7528 10.122 22.8591 10.2581C22.9654 10.3942 23.0393 10.5528 23.0752 10.7217C23.1111 10.8906 23.108 11.0655 23.0662 11.233L21.0073 19.4673C20.8844 19.9592 20.6006 20.3959 20.2009 20.708C19.8013 21.0201 19.3089 21.1896 18.8018 21.1897H5.29817C4.79114 21.1896 4.29868 21.0201 3.89906 20.708C3.49945 20.3959 3.21561 19.9592 3.09265 19.4673L1.03379 11.2342V11.233Z" stroke="black" stroke-linejoin="round"/>
<path d="M5.22852 9.82118L9.77597 3M18.8709 9.82118L14.3234 3" stroke="black" stroke-linecap="round"/>
<path d="M11.9992 18.12C13.2272 18.12 14.0712 17.276 14.0712 16.048V14.192C14.0712 12.964 13.2272 12.12 11.9992 12.12C10.7712 12.12 9.92719 12.964 9.92719 14.192V16.048C9.92719 17.276 10.7712 18.12 11.9992 18.12ZM11.9992 17.204C11.3912 17.204 10.9112 16.724 10.9112 16.116V14.12C10.9112 13.508 11.3912 13.028 11.9992 13.028C12.6072 13.028 13.0872 13.508 13.0872 14.12V16.116C13.0872 16.724 12.6072 17.204 11.9992 17.204Z" fill="black"/>
</svg>
